<?xml version="1.0" encoding="utf-8" standalone="no"?>
<!DOCTYPE svg PUBLIC "-//W3C//DTD SVG 1.1//EN"
  "http://www.w3.org/Graphics/SVG/1.1/DTD/svg11.dtd">
<svg xmlns:xlink="http://www.w3.org/1999/xlink" width="518.4pt" height="320.4pt" viewBox="0 0 518.4 320.4" xmlns="http://www.w3.org/2000/svg" version="1.1">
 <metadata>
  <rdf:RDF xmlns:dc="http://purl.org/dc/elements/1.1/" xmlns:cc="http://creativecommons.org/ns#" xmlns:rdf="http://www.w3.org/1999/02/22-rdf-syntax-ns#">
   <cc:Work>
    <dc:type rdf:resource="http://purl.org/dc/dcmitype/StillImage"/>
    <dc:date>2026-09-27T02:15:49.026259</dc:date>
    <dc:format>image/svg+xml</dc:format>
    <dc:creator>
     <cc:Agent>
      <dc:title>Matplotlib v3.10.8, https://matplotlib.org/</dc:title>
     </cc:Agent>
    </dc:creator>
   </cc:Work>
  </rdf:RDF>
 </metadata>
 <defs>
  <style type="text/css">*{stroke-linejoin: round; stroke-linecap: butt}</style>
 </defs>
 <g id="figure_1">
  <g id="patch_1">
   <path d="M 0 320.4 
L 518.4 320.4 
L 518.4 0 
L 0 0 
z
" style="fill: #ffffff"/>
  </g>
  <g id="axes_1">
   <g id="patch_2">
    <path d="M 10.8 23.04 
L 234 23.04 
Q 236.16 23.04 236.16 25.2 
L 236.16 51.84 
Q 236.16 54 234 54 
L 10.8 54 
Q 8.64 54 8.64 51.84 
L 8.64 25.2 
Q 8.64 23.04 10.8 23.04 
z
" clip-path="url(#p0e223e21e2)" style="fill: #eaf1f6; stroke: #233444; stroke-width: 0.65; stroke-linejoin: miter"/>
   </g>
   <g id="patch_3">
    <path d="M 122.4 56.00083 
Q 122.4 64.442529 122.4 72.101605 
" clip-path="url(#p0e223e21e2)" style="fill: none; stroke: #233444; stroke-width: 0.7; stroke-linecap: round"/>
    <path d="M 123.8 69.301605 
L 122.4 72.101605 
L 121 69.301605 
z
" clip-path="url(#p0e223e21e2)" style="fill: #233444; stroke: #233444; stroke-width: 0.7; stroke-linecap: round"/>
   </g>
   <g id="patch_4">
    <path d="M 10.8 74.88 
L 234 74.88 
Q 236.16 74.88 236.16 77.04 
L 236.16 97.2 
Q 236.16 99.36 234 99.36 
L 10.8 99.36 
Q 8.64 99.36 8.64 97.2 
L 8.64 77.04 
Q 8.64 74.88 10.8 74.88 
z
" clip-path="url(#p0e223e21e2)" style="fill: #eaf1f6; stroke: #233444; stroke-width: 0.65; stroke-linejoin: miter"/>
   </g>
   <g id="patch_5">
    <path d="M 122.4 101.363906 
Q 122.4 103.682327 122.4 105.218123 
" clip-path="url(#p0e223e21e2)" style="fill: none; stroke: #233444; stroke-width: 0.7; stroke-linecap: round"/>
    <path d="M 123.8 102.418123 
L 122.4 105.218123 
L 121 102.418123 
z
" clip-path="url(#p0e223e21e2)" style="fill: #233444; stroke: #233444; stroke-width: 0.7; stroke-linecap: round"/>
   </g>
   <g id="patch_6">
    <path d="M 5.603203 156.96 
Q 6.120704 156.96 5.855581 156.96 
" clip-path="url(#p0e223e21e2)" style="fill: none; stroke: #233444; stroke-width: 0.7; stroke-linecap: round"/>
    <path d="M 3.055581 155.56 
L 5.855581 156.96 
L 3.055581 158.36 
z
" clip-path="url(#p0e223e21e2)" style="fill: #233444; stroke: #233444; stroke-width: 0.7; stroke-linecap: round"/>
   </g>
   <g id="patch_7">
    <path d="M 10.8 108 
L 234 108 
Q 236.16 108 236.16 110.16 
L 236.16 133.92 
Q 236.16 136.08 234 136.08 
L 10.8 136.08 
Q 8.64 136.08 8.64 133.92 
L 8.64 110.16 
Q 8.64 108 10.8 108 
z
" clip-path="url(#p0e223e21e2)" style="fill: #f3f3f3; stroke: #233444; stroke-width: 0.65; stroke-linejoin: miter"/>
   </g>
   <g id="patch_8">
    <path d="M 10.8 144.72 
L 234 144.72 
Q 236.16 144.72 236.16 146.88 
L 236.16 167.04 
Q 236.16 169.2 234 169.2 
L 10.8 169.2 
Q 8.64 169.2 8.64 167.04 
L 8.64 146.88 
Q 8.64 144.72 10.8 144.72 
z
" clip-path="url(#p0e223e21e2)" style="fill: #eaf1f6; stroke: #233444; stroke-width: 0.65; stroke-linejoin: miter"/>
   </g>
   <g id="patch_9">
    <path d="M 46.8 181.277227 
Q 46.8 183.957377 46.8 185.854903 
" clip-path="url(#p0e223e21e2)" style="fill: none; stroke: #233444; stroke-width: 0.7; stroke-linecap: round"/>
    <path d="M 48.2 183.054903 
L 46.8 185.854903 
L 45.4 183.054903 
z
" clip-path="url(#p0e223e21e2)" style="fill: #233444; stroke: #233444; stroke-width: 0.7; stroke-linecap: round"/>
   </g>
   <g id="patch_10">
    <path d="M 122.4 181.277227 
Q 122.4 183.957377 122.4 185.854903 
" clip-path="url(#p0e223e21e2)" style="fill: none; stroke: #233444; stroke-width: 0.7; stroke-linecap: round"/>
    <path d="M 123.8 183.054903 
L 122.4 185.854903 
L 121 183.054903 
z
" clip-path="url(#p0e223e21e2)" style="fill: #233444; stroke: #233444; stroke-width: 0.7; stroke-linecap: round"/>
   </g>
   <g id="patch_11">
    <path d="M 198 181.277227 
Q 198 183.957377 198 185.854903 
" clip-path="url(#p0e223e21e2)" style="fill: none; stroke: #233444; stroke-width: 0.7; stroke-linecap: round"/>
    <path d="M 199.4 183.054903 
L 198 185.854903 
L 196.6 183.054903 
z
" clip-path="url(#p0e223e21e2)" style="fill: #233444; stroke: #233444; stroke-width: 0.7; stroke-linecap: round"/>
   </g>
   <g id="patch_12">
    <path d="M 10.8 188.64 
L 78.48 188.64 
Q 80.64 188.64 80.64 190.8 
L 80.64 216 
Q 80.64 218.16 78.48 218.16 
L 10.8 218.16 
Q 8.64 218.16 8.64 216 
L 8.64 190.8 
Q 8.64 188.64 10.8 188.64 
z
" clip-path="url(#p0e223e21e2)" style="fill: #eaf1f6; stroke: #233444; stroke-width: 0.65; stroke-linejoin: miter"/>
   </g>
   <g id="patch_13">
    <path d="M 88.56 188.64 
L 156.24 188.64 
Q 158.4 188.64 158.4 190.8 
L 158.4 216 
Q 158.4 218.16 156.24 218.16 
L 88.56 218.16 
Q 86.4 218.16 86.4 216 
L 86.4 190.8 
Q 86.4 188.64 88.56 188.64 
z
" clip-path="url(#p0e223e21e2)" style="fill: #f3f3f3; stroke: #233444; stroke-width: 0.65; stroke-linejoin: miter"/>
   </g>
   <g id="patch_14">
    <path d="M 166.32 188.64 
L 234 188.64 
Q 236.16 188.64 236.16 190.8 
L 236.16 216 
Q 236.16 218.16 234 218.16 
L 166.32 218.16 
Q 164.16 218.16 164.16 216 
L 164.16 190.8 
Q 164.16 188.64 166.32 188.64 
z
" clip-path="url(#p0e223e21e2)" style="fill: #f3f3f3; stroke: #233444; stroke-width: 0.65; stroke-linejoin: miter"/>
   </g>
   <g id="patch_15">
    <path d="M 44.64 220.157051 
Q 44.64 233.27699 44.64 245.614306 
" clip-path="url(#p0e223e21e2)" style="fill: none; stroke: #233444; stroke-width: 0.7; stroke-linecap: round"/>
    <path d="M 46.04 242.814306 
L 44.64 245.614306 
L 43.24 242.814306 
z
" clip-path="url(#p0e223e21e2)" style="fill: #233444; stroke: #233444; stroke-width: 0.7; stroke-linecap: round"/>
   </g>
   <g id="patch_16">
    <path d="M 10.8 248.4 
L 156.24 248.4 
Q 158.4 248.4 158.4 250.56 
L 158.4 279.36 
Q 158.4 281.52 156.24 281.52 
L 10.8 281.52 
Q 8.64 281.52 8.64 279.36 
L 8.64 250.56 
Q 8.64 248.4 10.8 248.4 
z
" clip-path="url(#p0e223e21e2)" style="fill: #eaf1f6; stroke: #233444; stroke-width: 0.65; stroke-linejoin: miter"/>
   </g>
   <g id="patch_17">
    <path d="M 271.44 23.04 
L 507.6 23.04 
Q 509.76 23.04 509.76 25.2 
L 509.76 55.44 
Q 509.76 57.6 507.6 57.6 
L 271.44 57.6 
Q 269.28 57.6 269.28 55.44 
L 269.28 25.2 
Q 269.28 23.04 271.44 23.04 
z
" clip-path="url(#p0e223e21e2)" style="fill: #eaf1f6; stroke: #233444; stroke-width: 0.65; stroke-linejoin: miter"/>
   </g>
   <g id="patch_18">
    <path d="M 254.003906 39.6 
Q 260.640578 39.6 266.494627 39.6 
" clip-path="url(#p0e223e21e2)" style="fill: none; stroke-dasharray: 2.59,1.12; stroke-dashoffset: 0; stroke: #233444; stroke-width: 0.7; stroke-linecap: round"/>
    <path d="M 263.694627 38.2 
L 266.494627 39.6 
L 263.694627 41 
z
" clip-path="url(#p0e223e21e2)" style="fill: #233444; stroke-dasharray: 2.59,1.12; stroke-dashoffset: 0; stroke: #233444; stroke-width: 0.7; stroke-linecap: round"/>
   </g>
   <g id="patch_19">
    <path d="M 389.52 59.599512 
Q 389.52 66.601679 389.52 72.821222 
" clip-path="url(#p0e223e21e2)" style="fill: none; stroke: #233444; stroke-width: 0.7; stroke-linecap: round"/>
    <path d="M 390.92 70.021222 
L 389.52 72.821222 
L 388.12 70.021222 
z
" clip-path="url(#p0e223e21e2)" style="fill: #233444; stroke: #233444; stroke-width: 0.7; stroke-linecap: round"/>
   </g>
   <g id="patch_20">
    <path d="M 271.44 75.6 
L 507.6 75.6 
Q 509.76 75.6 509.76 77.76 
L 509.76 104.4 
Q 509.76 106.56 507.6 106.56 
L 271.44 106.56 
Q 269.28 106.56 269.28 104.4 
L 269.28 77.76 
Q 269.28 75.6 271.44 75.6 
z
" clip-path="url(#p0e223e21e2)" style="fill: #f3f3f3; stroke: #233444; stroke-width: 0.65; stroke-linejoin: miter"/>
   </g>
   <g id="patch_21">
    <path d="M 389.52 108.56127 
Q 389.52 117.362994 389.52 125.382095 
" clip-path="url(#p0e223e21e2)" style="fill: none; stroke: #233444; stroke-width: 0.7; stroke-linecap: round"/>
    <path d="M 390.92 122.582095 
L 389.52 125.382095 
L 388.12 122.582095 
z
" clip-path="url(#p0e223e21e2)" style="fill: #233444; stroke: #233444; stroke-width: 0.7; stroke-linecap: round"/>
   </g>
   <g id="patch_22">
    <path d="M 271.44 128.16 
L 507.6 128.16 
Q 509.76 128.16 509.76 130.32 
L 509.76 156.24 
Q 509.76 158.4 507.6 158.4 
L 271.44 158.4 
Q 269.28 158.4 269.28 156.24 
L 269.28 130.32 
Q 269.28 128.16 271.44 128.16 
z
" clip-path="url(#p0e223e21e2)" style="fill: #eaf1f6; stroke: #233444; stroke-width: 0.65; stroke-linejoin: miter"/>
   </g>
   <g id="patch_23">
    <path d="M 303.84 171.923906 
Q 303.84 174.242327 303.84 175.778123 
" clip-path="url(#p0e223e21e2)" style="fill: none; stroke: #233444; stroke-width: 0.7; stroke-linecap: round"/>
    <path d="M 305.24 172.978123 
L 303.84 175.778123 
L 302.44 172.978123 
z
" clip-path="url(#p0e223e21e2)" style="fill: #233444; stroke: #233444; stroke-width: 0.7; stroke-linecap: round"/>
   </g>
   <g id="patch_24">
    <path d="M 389.52 171.923906 
Q 389.52 174.242327 389.52 175.778123 
" clip-path="url(#p0e223e21e2)" style="fill: none; stroke: #233444; stroke-width: 0.7; stroke-linecap: round"/>
    <path d="M 390.92 172.978123 
L 389.52 175.778123 
L 388.12 172.978123 
z
" clip-path="url(#p0e223e21e2)" style="fill: #233444; stroke: #233444; stroke-width: 0.7; stroke-linecap: round"/>
   </g>
   <g id="patch_25">
    <path d="M 475.2 171.923906 
Q 475.2 174.242327 475.2 175.778123 
" clip-path="url(#p0e223e21e2)" style="fill: none; stroke: #233444; stroke-width: 0.7; stroke-linecap: round"/>
    <path d="M 476.6 172.978123 
L 475.2 175.778123 
L 473.8 172.978123 
z
" clip-path="url(#p0e223e21e2)" style="fill: #233444; stroke: #233444; stroke-width: 0.7; stroke-linecap: round"/>
   </g>
   <g id="patch_26">
    <path d="M 271.44 178.56 
L 336.24 178.56 
Q 338.4 178.56 338.4 180.72 
L 338.4 207.36 
Q 338.4 209.52 336.24 209.52 
L 271.44 209.52 
Q 269.28 209.52 269.28 207.36 
L 269.28 180.72 
Q 269.28 178.56 271.44 178.56 
z
" clip-path="url(#p0e223e21e2)" style="fill: #eaf1f6; stroke: #233444; stroke-width: 0.65; stroke-linejoin: miter"/>
   </g>
   <g id="patch_27">
    <path d="M 352.08 178.56 
L 426.96 178.56 
Q 429.12 178.56 429.12 180.72 
L 429.12 207.36 
Q 429.12 209.52 426.96 209.52 
L 352.08 209.52 
Q 349.92 209.52 349.92 207.36 
L 349.92 180.72 
Q 349.92 178.56 352.08 178.56 
z
" clip-path="url(#p0e223e21e2)" style="fill: #f3f3f3; stroke: #233444; stroke-width: 0.65; stroke-linejoin: miter"/>
   </g>
   <g id="patch_28">
    <path d="M 442.8 178.56 
L 507.6 178.56 
Q 509.76 178.56 509.76 180.72 
L 509.76 207.36 
Q 509.76 209.52 507.6 209.52 
L 442.8 209.52 
Q 440.64 209.52 440.64 207.36 
L 440.64 180.72 
Q 440.64 178.56 442.8 178.56 
z
" clip-path="url(#p0e223e21e2)" style="fill: #f3f3f3; stroke: #233444; stroke-width: 0.65; stroke-linejoin: miter"/>
   </g>
   <g id="patch_29">
    <path d="M 303.84 211.517051 
Q 303.84 217.077324 303.84 221.854973 
" clip-path="url(#p0e223e21e2)" style="fill: none; stroke: #233444; stroke-width: 0.7; stroke-linecap: round"/>
    <path d="M 305.24 219.054973 
L 303.84 221.854973 
L 302.44 219.054973 
z
" clip-path="url(#p0e223e21e2)" style="fill: #233444; stroke: #233444; stroke-width: 0.7; stroke-linecap: round"/>
   </g>
   <g id="patch_30">
    <path d="M 271.44 224.64 
L 507.6 224.64 
Q 509.76 224.64 509.76 226.8 
L 509.76 256.32 
Q 509.76 258.48 507.6 258.48 
L 271.44 258.48 
Q 269.28 258.48 269.28 256.32 
L 269.28 226.8 
Q 269.28 224.64 271.44 224.64 
z
" clip-path="url(#p0e223e21e2)" style="fill: #eaf1f6; stroke: #233444; stroke-width: 0.65; stroke-linejoin: miter"/>
   </g>
   <g id="patch_31">
    <path d="M 389.52 260.48127 
Q 389.52 266.760077 389.52 272.256262 
" clip-path="url(#p0e223e21e2)" style="fill: none; stroke-dasharray: 2.59,1.12; stroke-dashoffset: 0; stroke: #233444; stroke-width: 0.7; stroke-linecap: round"/>
    <path d="M 390.92 269.456262 
L 389.52 272.256262 
L 388.12 269.456262 
z
" clip-path="url(#p0e223e21e2)" style="fill: #233444; stroke-dasharray: 2.59,1.12; stroke-dashoffset: 0; stroke: #233444; stroke-width: 0.7; stroke-linecap: round"/>
   </g>
   <g id="patch_32">
    <path d="M 271.44 275.04 
L 507.6 275.04 
Q 509.76 275.04 509.76 277.2 
L 509.76 295.2 
Q 509.76 297.36 507.6 297.36 
L 271.44 297.36 
Q 269.28 297.36 269.28 295.2 
L 269.28 277.2 
Q 269.28 275.04 271.44 275.04 
z
" clip-path="url(#p0e223e21e2)" style="fill: #eaf1f6; stroke: #233444; stroke-width: 0.65; stroke-linejoin: miter"/>
   </g>
   <g id="line2d_1">
    <path d="M 8.64 87.12 
L 3.6 87.12 
" clip-path="url(#p0e223e21e2)" style="fill: none; stroke: #233444; stroke-width: 0.7; stroke-linecap: square"/>
   </g>
   <g id="line2d_2">
    <path d="M 3.6 87.12 
L 3.6 156.96 
" clip-path="url(#p0e223e21e2)" style="fill: none; stroke: #233444; stroke-width: 0.7; stroke-linecap: square"/>
   </g>
   <g id="line2d_3">
    <path d="M 122.4 169.2 
L 122.4 179.28 
" clip-path="url(#p0e223e21e2)" style="fill: none; stroke: #233444; stroke-width: 0.7; stroke-linecap: square"/>
   </g>
   <g id="line2d_4">
    <path d="M 122.4 179.28 
L 46.8 179.28 
" clip-path="url(#p0e223e21e2)" style="fill: none; stroke: #233444; stroke-width: 0.7; stroke-linecap: square"/>
   </g>
   <g id="line2d_5">
    <path d="M 122.4 179.28 
L 198 179.28 
" clip-path="url(#p0e223e21e2)" style="fill: none; stroke: #233444; stroke-width: 0.7; stroke-linecap: square"/>
   </g>
   <g id="line2d_6">
    <path d="M 158.4 264.96 
L 252 264.96 
" clip-path="url(#p0e223e21e2)" style="fill: none; stroke-dasharray: 2.59,1.12; stroke-dashoffset: 0; stroke: #233444; stroke-width: 0.7"/>
   </g>
   <g id="line2d_7">
    <path d="M 252 264.96 
L 252 39.6 
" clip-path="url(#p0e223e21e2)" style="fill: none; stroke-dasharray: 2.59,1.12; stroke-dashoffset: 0; stroke: #233444; stroke-width: 0.7"/>
   </g>
   <g id="line2d_8">
    <path d="M 389.52 158.4 
L 389.52 169.92 
" clip-path="url(#p0e223e21e2)" style="fill: none; stroke: #233444; stroke-width: 0.7; stroke-linecap: square"/>
   </g>
   <g id="line2d_9">
    <path d="M 389.52 169.92 
L 303.84 169.92 
" clip-path="url(#p0e223e21e2)" style="fill: none; stroke: #233444; stroke-width: 0.7; stroke-linecap: square"/>
   </g>
   <g id="line2d_10">
    <path d="M 389.52 169.92 
L 475.2 169.92 
" clip-path="url(#p0e223e21e2)" style="fill: none; stroke: #233444; stroke-width: 0.7; stroke-linecap: square"/>
   </g>
   <g id="text_1">
    <text style="font-weight: 700; font-size: 9px; font-family: 'DejaVu Sans'; text-anchor: middle; fill: #233444" x="122.4" y="12.528281" transform="rotate(-0 122.4 12.528281)">A  Identification and metadata screening</text>
   </g>
   <g id="text_2">
    <text style="font-weight: 700; font-size: 9px; font-family: 'DejaVu Sans'; text-anchor: middle; fill: #233444" x="388.8" y="12.528281" transform="rotate(-0 388.8 12.528281)">B  Purposeful full-report synthesis</text>
   </g>
   <g id="text_3">
    <text style="font-size: 8px; font-family: 'DejaVu Sans'; fill: #233444" transform="translate(65.784375 35.944438)">187,446 source occurrences</text>
    <text style="font-size: 8px; font-family: 'DejaVu Sans'; fill: #233444" transform="translate(45.216875 45.510563)">Nine registered retrieval/import routes</text>
   </g>
   <g id="text_4">
    <g id="patch_33">
     <path d="M 50.502891 67.537344 
L 194.297109 67.537344 
L 194.297109 60.622656 
L 50.502891 60.622656 
z
" style="fill: #ffffff"/>
    </g>
    <text style="font-size: 7px; font-family: 'DejaVu Sans'; text-anchor: middle; fill: #233444" x="122.4" y="66.011562" transform="rotate(-0 122.4 66.011562)">46,487 surplus occurrences consolidated</text>
   </g>
   <g id="text_5">
    <text style="font-size: 8px; font-family: 'DejaVu Sans'; text-anchor: middle; fill: #233444" x="122.4" y="89.3275" transform="rotate(-0 122.4 89.3275)">140,959 canonical bibliographic records</text>
   </g>
   <g id="text_6">
    <text style="font-size: 7.8px; font-family: 'DejaVu Sans'; fill: #233444" transform="translate(40.619437 119.528827)">Separate states: 110 protected; 35 failed;</text>
    <text style="font-size: 7.8px; font-family: 'DejaVu Sans'; fill: #233444" transform="translate(45.610828 128.855798)">4 ambiguous; 0 genuinely unprocessed</text>
   </g>
   <g id="text_7">
    <text style="font-size: 8px; font-family: 'DejaVu Sans'; text-anchor: middle; fill: #233444" x="122.4" y="159.1675" transform="rotate(-0 122.4 159.1675)">140,810 valid effective screenings</text>
   </g>
   <g id="text_8">
    <text style="font-size: 8.3px; font-family: 'DejaVu Sans'; fill: #233444" transform="translate(32.759328 200.727854)">9,505</text>
    <text style="font-size: 8.3px; font-family: 'DejaVu Sans'; fill: #233444" transform="translate(24.640242 210.652709)">ADVANCE</text>
   </g>
   <g id="text_9">
    <text style="font-size: 8.3px; font-family: 'DejaVu Sans'; fill: #233444" transform="translate(107.878891 200.727854)">83,258</text>
    <text style="font-size: 8.3px; font-family: 'DejaVu Sans'; fill: #233444" transform="translate(108.689437 210.652709)">DEFER</text>
   </g>
   <g id="text_10">
    <text style="font-size: 8.3px; font-family: 'DejaVu Sans'; fill: #233444" transform="translate(185.638891 200.727854)">48,047</text>
    <text style="font-size: 8.3px; font-family: 'DejaVu Sans'; fill: #233444" transform="translate(177.942586 210.652709)">EXCLUDED</text>
   </g>
   <g id="text_11">
    <text style="font-size: 7px; font-family: 'DejaVu Sans'; fill: #233444" transform="translate(171.516562 228.866383)">Includes 10,460</text>
    <text style="font-size: 7px; font-family: 'DejaVu Sans'; fill: #233444" transform="translate(169.233359 237.236742)">background flags</text>
   </g>
   <g id="text_12">
    <text style="font-size: 7.8px; font-family: 'DejaVu Sans'; fill: #233444" transform="translate(25.550156 262.448827)">9,505 categorized candidates</text>
    <text style="font-size: 7.8px; font-family: 'DejaVu Sans'; fill: #233444" transform="translate(23.486203 271.775798)">Descriptive, provisional coding</text>
   </g>
   <g id="text_13">
    <text style="font-size: 7.3px; font-family: 'DejaVu Sans'; fill: #233444" transform="translate(41.981375 297.169799)">Effective outcomes count each record once.</text>
    <text style="font-size: 7.3px; font-family: 'DejaVu Sans'; fill: #233444" transform="translate(35.575625 305.898888)">Deferral and technical failure are not exclusion.</text>
   </g>
   <g id="text_14">
    <text style="font-size: 7.7px; font-family: 'DejaVu Sans'; fill: #233444" transform="translate(313.244883 33.237323)">384 selected report rows / 381 systems</text>
    <text style="font-size: 7.7px; font-family: 'DejaVu Sans'; fill: #233444" transform="translate(317.445594 42.444719)">373 systems linked to candidate pool</text>
    <text style="font-size: 7.7px; font-family: 'DejaVu Sans'; fill: #233444" transform="translate(323.421516 51.652114)">8 from additional discovery routes</text>
   </g>
   <g id="text_15">
    <text style="font-size: 7px; font-family: 'DejaVu Sans'; text-anchor: middle; fill: #233444" x="202.32" y="254.651563" transform="rotate(-0 202.32 254.651563)">Purposeful selection</text>
   </g>
   <g id="text_16">
    <text style="font-size: 7px; font-family: 'DejaVu Sans'; text-anchor: middle; fill: #233444" x="202.32" y="276.971563" transform="rotate(-0 202.32 276.971563)">Not exhaustive</text>
   </g>
   <g id="text_17">
    <text style="font-size: 7.7px; font-family: 'DejaVu Sans'; fill: #233444" transform="translate(340.754336 88.601021)">Report access (384 rows)</text>
    <text style="font-size: 7.7px; font-family: 'DejaVu Sans'; fill: #233444" transform="translate(295.228086 97.808416)">135 full reports; 1 abstract only; 248 unavailable</text>
   </g>
   <g id="text_18">
    <g id="patch_34">
     <path d="M 308.288281 120.817344 
L 470.751719 120.817344 
L 470.751719 113.902656 
L 308.288281 113.902656 
z
" style="fill: #ffffff"/>
    </g>
    <text style="font-size: 7px; font-family: 'DejaVu Sans'; text-anchor: middle; fill: #233444" x="389.52" y="119.291563" transform="rotate(-0 389.52 119.291563)">Three related-report rows add no new system.</text>
   </g>
   <g id="text_19">
    <text style="font-size: 7.7px; font-family: 'DejaVu Sans'; fill: #233444" transform="translate(322.396453 140.801021)">System assessment (381 systems)</text>
    <text style="font-size: 7.7px; font-family: 'DejaVu Sans'; fill: #233444" transform="translate(289.260586 150.008416)">132 completed; 249 without completed assessment</text>
   </g>
   <g id="text_20">
    <text style="font-size: 8.3px; font-family: 'DejaVu Sans'; fill: #233444" transform="translate(298.559125 191.367854)">80</text>
    <text style="font-size: 8.3px; font-family: 'DejaVu Sans'; fill: #233444" transform="translate(288.783281 201.292709)">Eligible</text>
   </g>
   <g id="text_21">
    <text style="font-size: 8.3px; font-family: 'DejaVu Sans'; fill: #233444" transform="translate(384.239125 191.367854)">19</text>
    <text style="font-size: 8.3px; font-family: 'DejaVu Sans'; fill: #233444" transform="translate(366.187922 201.292709)">Unresolved</text>
   </g>
   <g id="text_22">
    <text style="font-size: 7.6px; font-family: 'DejaVu Sans'; fill: #233444" transform="translate(449.368906 191.593216)">33 Excluded /</text>
    <text style="font-size: 7.6px; font-family: 'DejaVu Sans'; fill: #233444" transform="translate(455.084344 200.681034)">contextual</text>
   </g>
   <g id="text_23">
    <text style="font-size: 7.8px; font-family: 'DejaVu Sans'; fill: #233444" transform="translate(302.337328 239.048827)">Map coverage within the 80 eligible systems</text>
    <text style="font-size: 7.8px; font-family: 'DejaVu Sans'; fill: #233444" transform="translate(309.057516 248.375798)">76 with supported placements; 4 without</text>
   </g>
   <g id="text_24">
    <text style="font-size: 8px; font-family: 'DejaVu Sans'; text-anchor: middle; fill: #233444" x="389.52" y="288.4075" transform="rotate(-0 389.52 288.4075)">118 system–cell placements (multilabel)</text>
   </g>
   <g id="text_25">
    <text style="font-size: 7.2px; font-family: 'DejaVu Sans'; text-anchor: middle; fill: #233444" x="389.52" y="313.02675" transform="rotate(-0 389.52 313.02675)">System judgments remain subject to author adjudication.</text>
   </g>
  </g>
 </g>
 <defs>
  <clipPath id="p0e223e21e2">
   <rect x="0" y="0" width="518.4" height="320.4"/>
  </clipPath>
 </defs>
</svg>
